<svg id="Livello_1" data-name="Livello 1" xmlns="http://www.w3.org/2000/svg" viewBox="0 0 349 95"><path d="M90.62,47.79c-6.55-1-25.67-1.48-26-1.55s-.16-.23-.16-.23c19.65-11.31,59.44-20,62.15-20.57,3-.8-.13-2.79-1.18-3.37a7.56,7.56,0,0,0-3.44-.56C103,21.57,70.8,33.2,61.26,37.38S48.07,43,48.58,50.61c.52,7.85,32.53,2,46.4,4,12.85,1.8,7.48,6.32.79,9.12-10,4.13-74.72,19.58-78.39,20.56s-6.61,3.24-7.58,4.9c-.62,1-1,2.66-.51,3.49a1.62,1.62,0,0,0,1.56.63c5.46-1,63.5-13.78,81-20.37,16.32-6.17,20.65-10.25,17.59-15.89S97.17,48.83,90.62,47.79Z"/><path d="M174.21,46.19c-2.34.81-2.47-.36-2.39-.76s.92-2.85.92-2.85c6.5-17.25,14.82-35.21,15.3-37.8s-.94-3.67-2-3.57a3,3,0,0,0-2.41,2.05S170.33,29.38,165,39.92c-4.2,8.26-18,21.81-21.61,21.09s-.31-10.08.15-12.32-2.43-4.1-4.68-3.67c-2.42.45-4.62,5-7.88,8.86s-8.81,8-9.89,7.3,1.45-6.61,2.48-10.14.06-4.47-.67-5a2.51,2.51,0,0,0-1.89-.26,2.48,2.48,0,0,0-1.38,1.21c-.4.69-1.15,2.32-3.24,7.14s-4,11.19-.74,13.87c2.62,2.12,7.47,2.69,11.85-1.3s6.74-8.35,7.26-8.76.4.12.4.12c-.82,5.11-.88,11.23,5.69,10.8,6.14-.4,20.26-18.68,20.26-18.68s-5.24,13.18-7.43,17.81c-2.28,4.78-1.82,6.51-1.44,7.65.64,1.94,5.92,6,6.69,3.74.54-1.65,5.59-16.8,12.11-23.5s14.76-6.62,15.91-4-5.75,10.44-10.84,13.45c-4.66,2.79-7.46,4.66-8,5.58a3,3,0,0,0,.06,2.8,2.24,2.24,0,0,0,2.78,1c2.41-.91,7.58-4.45,7.58-4.45,11-7.52,16.72-14.67,12.22-21.14C186.37,42.8,176.56,45.37,174.21,46.19Z"/><path d="M254.38,45.37c-2.41.43-5.35,6.28-8.67,10.1s-7.66,8-9.5,6c-.91-1,1.24-7,2.35-10.47s.13-4.47-.59-5a1.37,1.37,0,0,0-1.44-.21A2.42,2.42,0,0,0,235.14,47a49.76,49.76,0,0,0-3.29,6.5c-2.18,4.77-3.79,11.34-.85,14,2.47,2.29,7.81,2.89,12.24-1.06s6.31-7.91,6.84-8.3.41.13.41.13c-1,5-1.2,10.94,4.57,12a3.83,3.83,0,0,0,.8.06c1.53.08,2.71-.36,1.71-1.67A9.72,9.72,0,0,1,256,63.1c-.29-3.94,2.1-12.67,2.52-14.49C259,46.39,256.65,45,254.38,45.37Z"/><path d="M243,8.4c-1-1.3-2.47-1-4.45,1.63-5.45,7.43-17.75,36.25-17.75,36.25a6.55,6.55,0,0,1-.56.66,10,10,0,0,0-4.09-1.74c-15.06-2.15-23.39,14.15-22.9,20.84s6.05,7,6.05,7c6.23-.22,12.66-5.81,16.3-9.54-1.31,5.68-2.37,12-2.42,12.6-.06,1-.45,4.35,1.41,5.86a1.43,1.43,0,0,0,2.5-.68l2.08-8.4c4.56-15.65,13.48-36.75,14-38.1C237.07,24.34,244.12,9.86,243,8.4ZM208.62,62.05c-3,3.11-7.94,6.32-9.31,5.85-1.22-.41-2.2-2.37,1.47-8.44a18.2,18.2,0,0,1,9.46-7.75c1.61-.49,4.73-.66,6,1.15C217.34,54.5,211.65,59,208.62,62.05Z"/><path d="M336.62,3.56c-1.25.68-3.78,5.15-3.78,5.15-1,2.15-11.51,22.44-17.86,36.06h0c-.74-.56-7.07-2.33-12.86-.56-5.63,1.73-8.53,6.26-9.37,7.4s-4.28,6.15-7.06,8.42-9.05,7.13-13.72,6.23c-4.38-.86-2.66-5.84-2.66-5.84s6.82.41,11.09-2.7,6.72-12.46-2.34-13.45a11.12,11.12,0,0,0-9.79,3.92,20.94,20.94,0,0,0-5.85,15c0,5.62,4.2,9,11.13,7.34,7.19-1.7,14.5-8.65,14.52-8.3s-.88,9.18,7.4,8.39C301,70.07,306.56,64.46,310,61c-.24,1-.53,2.18-.72,3.2-.49,2.35-2.17,14.45.5,17.6a4.52,4.52,0,0,0,1.17.94c.51.17,1.12-.41,1.44-2a254.51,254.51,0,0,1,8.7-32.16c4-11.34,16.54-40.76,17-42C338.93,4.72,338.57,2.55,336.62,3.56ZM275,49.69c2.24-.74,3.51,1.3,2.39,3.63s-4.68,4-7.08,3.3C270.27,56.62,272.74,50.43,275,49.69Zm35.49,2.63c-2.8,4.48-11.35,11.23-11.91,11.62s-4.16,2.18-4.12-.49c.06-2.47,2.61-8.29,6.81-11.8,4.81-4,9.36-1.78,9.36-1.78C311.82,50.54,310.45,52.32,310.45,52.32Z"/></svg>